<?xml version="1.0" encoding="UTF-8"?>
<!DOCTYPE svg
PUBLIC "-//W3C//DTD SVG 1.1//EN"
       "http://www.w3.org/Graphics/SVG/1.1/DTD/svg11.dtd">
<svg viewBox="113 41 739 562" width="626px" height="521px" xmlns="http://www.w3.org/2000/svg" version="1.1">
   <line x1="603" y1="106" x2="593" y2="106" style="stroke:#333;stroke-width:1;"/>
   <line x1="261" y1="113" x2="251" y2="113" style="stroke:#333;stroke-width:1;"/>
   <line x1="593" y1="106" x2="261" y2="113" style="stroke:#333;stroke-width:1;"/>
   <line x1="595.5" y1="106" x2="599.03553390593" y2="109.53553390593" style="stroke:#333;stroke-width:2;"/>
   <line x1="595.5" y1="106" x2="599.03553390593" y2="102.46446609407" style="stroke:#333;stroke-width:2;"/>
   <line x1="256" y1="113" x2="259.53553390593" y2="116.53553390593" style="stroke:#333;stroke-width:2;"/>
   <line x1="256" y1="113" x2="259.53553390593" y2="109.46446609407" style="stroke:#333;stroke-width:2;"/>
   <line x1="603" y1="126" x2="593" y2="126" style="stroke:#0bf;stroke-width:1;"/>
   <line x1="575" y1="457" x2="585" y2="457" style="stroke:#0bf;stroke-width:1;"/>
   <line x1="593" y1="126" x2="575" y2="457" style="stroke:#0bf;stroke-width:1;"/>
   <line x1="595.5" y1="126" x2="599.03553390593" y2="129.53553390593" style="stroke:#0bf;stroke-width:2;"/>
   <line x1="595.5" y1="126" x2="599.03553390593" y2="122.46446609407" style="stroke:#0bf;stroke-width:2;"/>
   <line x1="580" y1="457" x2="576.46446609407" y2="460.53553390593" style="stroke:#0bf;stroke-width:2;"/>
   <line x1="580" y1="457" x2="576.46446609407" y2="453.46446609407" style="stroke:#0bf;stroke-width:2;"/>
   <line x1="129" y1="534" x2="119" y2="534" style="stroke:#b0b;stroke-width:1;"/>
   <line x1="118" y1="113" x2="128" y2="113" style="stroke:#b0b;stroke-width:1;"/>
   <line x1="119" y1="534" x2="118" y2="113" style="stroke:#b0b;stroke-width:1;"/>
   <line x1="121.5" y1="534" x2="125.03553390593" y2="537.53553390593" style="stroke:#b0b;stroke-width:2;"/>
   <line x1="121.5" y1="534" x2="125.03553390593" y2="530.46446609407" style="stroke:#b0b;stroke-width:2;"/>
   <line x1="123" y1="113" x2="119.46446609407" y2="116.53553390593" style="stroke:#b0b;stroke-width:2;"/>
   <line x1="123" y1="113" x2="119.46446609407" y2="109.46446609407" style="stroke:#b0b;stroke-width:2;"/>
   <rect width="123" height="20" x="128" y="83" style="fill:#007;stroke:black;"/>
   <text width="123" height="20" x="133" y="97" style="fill:#fff;" font-family="Arial" font-size="16px"> users</text>
   <rect width="123" height="20" x="128" y="103" style="fill:#aea;stroke:black;"/>
   <text width="123" height="20" x="133" y="117" style="fill:black;" font-family="Arial" font-size="16px">id</text>
   <rect width="123" height="20" x="128" y="123" style="fill:none;stroke:black;"/>
   <text width="123" height="20" x="133" y="137" style="fill:black;" font-family="Arial" font-size="16px">email</text>
   <rect width="123" height="20" x="128" y="143" style="fill:none;stroke:black;"/>
   <text width="123" height="20" x="133" y="157" style="fill:black;" font-family="Arial" font-size="16px">password</text>
   <rect width="123" height="20" x="128" y="163" style="fill:none;stroke:black;"/>
   <text width="123" height="20" x="133" y="177" style="fill:black;" font-family="Arial" font-size="16px">firstName</text>
   <rect width="123" height="20" x="128" y="183" style="fill:none;stroke:black;"/>
   <text width="123" height="20" x="133" y="197" style="fill:black;" font-family="Arial" font-size="16px">lastName</text>
   <rect width="123" height="20" x="128" y="203" style="fill:none;stroke:black;"/>
   <text width="123" height="20" x="133" y="217" style="fill:black;" font-family="Arial" font-size="16px">role</text>
   <rect width="123" height="20" x="603" y="56" style="fill:#007;stroke:black;"/>
   <text width="123" height="20" x="608" y="70" style="fill:#fff;" font-family="Arial" font-size="16px"> _assignments</text>
   <rect width="123" height="20" x="603" y="76" style="fill:#aea;stroke:black;"/>
   <text width="123" height="20" x="608" y="90" style="fill:black;" font-family="Arial" font-size="16px">id</text>
   <rect width="123" height="20" x="603" y="96" style="fill:none;stroke:black;"/>
   <text width="123" height="20" x="608" y="110" style="fill:black;" font-family="Arial" font-size="16px">userId</text>
   <rect width="123" height="20" x="603" y="116" style="fill:none;stroke:black;"/>
   <text width="123" height="20" x="608" y="130" style="fill:black;" font-family="Arial" font-size="16px">parkingSpaceId</text>
   <rect width="123" height="20" x="603" y="136" style="fill:none;stroke:black;"/>
   <text width="123" height="20" x="608" y="150" style="fill:black;" font-family="Arial" font-size="16px">assDate</text>
   <rect width="123" height="20" x="129" y="424" style="fill:#007;stroke:black;"/>
   <text width="123" height="20" x="134" y="438" style="fill:#fff;" font-family="Arial" font-size="16px"> _cars</text>
   <rect width="123" height="20" x="129" y="444" style="fill:#aea;stroke:black;"/>
   <text width="123" height="20" x="134" y="458" style="fill:black;" font-family="Arial" font-size="16px">id</text>
   <rect width="123" height="20" x="129" y="464" style="fill:none;stroke:black;"/>
   <text width="123" height="20" x="134" y="478" style="fill:black;" font-family="Arial" font-size="16px">imma</text>
   <rect width="123" height="20" x="129" y="484" style="fill:none;stroke:black;"/>
   <text width="123" height="20" x="134" y="498" style="fill:black;" font-family="Arial" font-size="16px">brand</text>
   <rect width="123" height="20" x="129" y="504" style="fill:none;stroke:black;"/>
   <text width="123" height="20" x="134" y="518" style="fill:black;" font-family="Arial" font-size="16px">color</text>
   <rect width="123" height="20" x="129" y="524" style="fill:none;stroke:black;"/>
   <text width="123" height="20" x="134" y="538" style="fill:black;" font-family="Arial" font-size="16px">ownerId</text>
   <rect width="123" height="20" x="585" y="427" style="fill:#007;stroke:black;"/>
   <text width="123" height="20" x="590" y="441" style="fill:#fff;" font-family="Arial" font-size="16px"> _parking_spaces</text>
   <rect width="123" height="20" x="585" y="447" style="fill:#aea;stroke:black;"/>
   <text width="123" height="20" x="590" y="461" style="fill:black;" font-family="Arial" font-size="16px">id</text>
   <rect width="123" height="20" x="585" y="467" style="fill:none;stroke:black;"/>
   <text width="123" height="20" x="590" y="481" style="fill:black;" font-family="Arial" font-size="16px">parkingNumber</text>
   <rect width="123" height="20" x="585" y="487" style="fill:none;stroke:black;"/>
   <text width="123" height="20" x="590" y="501" style="fill:black;" font-family="Arial" font-size="16px">isAvailable</text>
   <rect width="123" height="20" x="585" y="507" style="fill:none;stroke:black;"/>
   <text width="123" height="20" x="590" y="521" style="fill:black;" font-family="Arial" font-size="16px">occupationTime</text>
   <rect width="123" height="20" x="585" y="527" style="fill:none;stroke:black;"/>
   <text width="123" height="20" x="590" y="541" style="fill:black;" font-family="Arial" font-size="16px">floor</text>
</svg>
